<svg height="50" viewBox="0 0 100 100" width="50" xmlns="http://www.w3.org/2000/svg"><switch transform="translate(0 .022)"><g><path d="M73.7 28.3c-1.2-1.8-3.6-2.2-5.4-1s-2.2 3.6-1 5.4c3.5 5.1 5.4 11 5.4 17.2s-1.9 12.2-5.4 17.2c-1.2 1.8-.8 4.2 1 5.4.7.5 1.4.7 2.2.7 1.2 0 2.4-.6 3.2-1.7 4.4-6.4 6.8-13.9 6.8-21.7 0-7.6-2.4-15.1-6.8-21.5z"/><path d="M85 14.9c-1.4-1.7-3.8-1.9-5.5-.5s-1.9 3.8-.5 5.5C85.9 28.2 89.7 39 89.7 50S85.9 71.8 79 80.2c-1.4 1.7-1.1 4.1.6 5.5.7.6 1.6.9 2.5.9 1.1 0 2.2-.5 3-1.4 8-9.8 12.4-22.3 12.4-35.1 0-12.9-4.4-25.4-12.5-35.2zm-32.1-3.2c-2.9-1.5-6.4-1.2-9.1.8l-22.9 17c-.2.2-.6.3-.9.3h-8.9c-4.8 0-8.7 3.9-8.7 8.7v23c0 4.8 3.9 8.7 8.7 8.7H20c.3 0 .6.1.9.3l22.9 17c1.5 1.1 3.3 1.7 5.2 1.7 1.3 0 2.7-.3 3.9-.9 2.9-1.5 4.8-4.5 4.8-7.8v-61c-.1-3.3-1.9-6.3-4.8-7.8zm-3 68.8c0 .5-.3.7-.5.8s-.6.2-.9-.1l-22.9-17c-1.6-1.2-3.5-1.8-5.5-1.8h-8.9c-.5 0-.9-.4-.9-.9v-23c0-.5.4-.9.9-.9h8.9c2 0 3.9-.6 5.5-1.8l22.9-17c.4-.3.7-.2.9-.1s.5.3.5.8z"/></g></switch></svg>