<svg xmlns="http://www.w3.org/2000/svg" height="50" viewBox="-97 220.9 50 50" width="50"><rect width="48.96" height="48.96" x="-96.481" y="221.385" ry="13.037" fill="#7100f3" stroke="#7100f3" stroke-width="1.04"/><path d="M-81.084 222.32c-.216.016-.372.099-.527.176a.374.374 0 00-.008.004c-1.365.718-3.572 1.868-5.1 2.813a.374.374 0 00-.006.004 1.22 1.22 0 00-.525.763.374.374 0 00-.01.076c-.05 7.061-.086 14.377-.092 20.563a.374.374 0 00.004.053c1.107 7.864 3.796 14.253 9.438 19.111a.374.374 0 00.004.004c1.568 1.32 3.368 2.478 5.379 3.152 2.148.717 4.625.85 6.746-.365a.374.374 0 00.004-.002c3.103-1.818 6.336-3.557 7.97-6.197a.374.374 0 00.02-.04c.69-1.471.978-3.066 1.033-4.622a.374.374 0 00.002-.012c.052-6.907.065-14.03.104-20.68a.374.374 0 000-.002c0-.488-.327-.813-.567-.982a.374.374 0 00-.025-.016c-2.78-1.629-4.953-2.837-7.594-4.388a.374.374 0 00-.022-.012 1.215 1.215 0 00-.968-.047.374.374 0 00-.045.021c-1.739.956-3.537 2.035-5.018 2.883l-.004.002c-.25.133-.441.309-.554.514a1.31 1.31 0 00-.149.613.374.374 0 000 .012c.02 5.486-.058 10.388-.039 15.316-.318-.622-.595-1.316-.707-1.953-.154-5.649-.014-13.954-.014-21.027a.374.374 0 000-.004c-.003-.308-.004-.542-.109-.783-.105-.242-.308-.41-.55-.553a.374.374 0 00-.008-.004c-2.684-1.507-5.15-2.93-7.45-4.207l.028.018c-.203-.137-.425-.217-.641-.202zm0 2.313c1.828 1.048 3.678 2.12 5.367 3.094-.967.558-1.88 1.082-2.8 1.619-1.864-1.052-3.71-2.13-5.36-3.09.965-.565 1.883-1.097 2.793-1.623zm-3.88 3.611c1.246.673 3.629 2.106 5.308 3.084-.003 1.881-.012 3.723-.014 5.336-1.88-1.07-4.183-2.375-5.328-3.062.006-1.318.016-3.895.033-5.358zm19.55 5.817c1.821 1.053 3.663 2.108 5.332 3.07-.947.55-1.892 1.106-2.775 1.619a641.801 641.801 0 00-5.34-3.074c.926-.54 1.854-1.08 2.783-1.615zm-19.568 2.15c1.774 1.028 3.566 2.069 5.31 3.06 0 4.033-.017 8.168-.017 11.893a.374.374 0 00.002.016c.109 2.555 1.404 5.09 3.017 6.713a.374.374 0 00.024.021c1.065.909 2.335 1.472 3.533 1.604 1.197.131 2.358-.184 3.064-1.08a.374.374 0 00.031-.05c.657-1.16.69-2.456.69-3.519v-.002c.016-3.217.008-6.286.031-9.262 1.841 1.073 3.57 2.074 5.33 3.096-.001 4.205-.035 7.625-.035 11.512 0 1.463-.218 2.905-.795 4.181-.972 1.42-2.146 2.567-3.404 2.875-1.899.145-3.784-.297-5.225-1.037-1.523-.896-2.973-1.96-4.054-2.986a.374.374 0 00-.002 0c-4.526-4.262-6.937-10.382-7.534-16.687-.005-3.457.028-7.037.034-10.348zm15.671 1.416c1.808 1.04 3.663 2.114 5.35 3.094-.012 1.779-.02 3.557-.021 5.336a3029.897 3029.897 0 01-5.336-3.082c.012-1.864.008-3.692.007-5.348zm-5.312.02c-.018 3.747-.033 6.775-.033 10.525a.374.374 0 000 .008c.062 2.771 1.617 5.105 3.133 6.889.006.224.007.299-.002.656-.058.67-.293 1.341-.67 1.605-.867.204-1.703-.172-2.48-.836-.795-.678-1.476-1.626-1.927-2.347-.499-.988-.834-2.034-.82-3.092a.374.374 0 000-.006c-.007-4.03.032-8.162.025-11.81.966-.535 1.895-1.08 2.774-1.592zm15.678 9.402c.033 4.173.19 8.524-.237 12.41-.273 2.053-1.518 3.415-3.148 4.521.405-1.392.513-2.827.578-4.218a.374.374 0 00.002-.022c-.04-3.844.06-7.768.02-11.08.955-.549 1.895-1.095 2.785-1.611z" fill="#fff"/></svg>