<svg height="50" viewBox="0 0 50 50" width="50" xmlns="http://www.w3.org/2000/svg"><path d="m14 19h13.18975c1.169683 0 2.302347.410081 3.200922 1.158894l4.331193 3.609327c.179716.149763.406248.231779.640185.231779h40.63795c2.761424 0 5 2.238576 5 5v9c0 .552285.447715 1 1 1h4c2.181135 0 3.949294 1.768159 3.949294 3.949294 0 .308057-.03604.615057-.107397.914737l-7.92716 33.294072c-.536271 2.25234-2.548728 3.841897-4.864031 3.841897h-63.050706c-2.761424 0-5-2.238576-5-5v-52c0-2.761424 2.238576-5 5-5zm70.376504 26.231648c.01807-.07589.0272-.153632.02719-.231642-.000012-.552285-.447737-.99999-1.000022-.999978l-56.724194.0012c-.903587.00002-1.69493.605893-1.930684 1.478182l-7.908012 29.259645c-.02299.08506-.03464.172793-.03464.260909 0 .552285.447715 1 1 1h58.454698c.46306 0 .865552-.317911.972806-.768379zm-69.376504-21.231648v.000044c-.552268 0-.999976.447688-1 .999956h-.000044l-.0017 38.743333c-.000008.180727.121169.339009.295637.386163.213262.05764.43287-.06852.490509-.281782l5.716826-21.152259c.589395-2.180762 2.567811-3.695455 4.826817-3.695455h49.671955c.552285 0 1-.447715 1-1v-8c0-.552285-.447715-1-1-1h-40c-1.169683 0-2.302347-.410081-3.200922-1.158894l-4.331193-3.609327c-.179715-.149763-.406248-.231779-.640185-.231779z" transform="matrix(.61767062 0 0 .61767062 -5.559036 -5.883531)"/></svg>