<svg height="50" width="50" xmlns="http://www.w3.org/2000/svg"><path d="M3.088 5.852h8.147a3.09 3.09 0 011.977.716l2.676 2.23c.11.092.25.143.395.143h25.1a3.088 3.088 0 013.09 3.088v5.559c0 .341.276.618.617.618h2.47a2.44 2.44 0 012.374 3.004l-4.897 20.565a3.088 3.088 0 01-3.004 2.373H3.088A3.088 3.088 0 010 41.059V8.941a3.088 3.088 0 013.088-3.089zm43.47 16.203a.617.617 0 00-.601-.761H10.92c-.558 0-1.047.375-1.192.914L4.843 40.28a.618.618 0 00.596.778h36.106a.618.618 0 00.6-.474zM3.706 8.94a.618.618 0 00-.618.617v23.93a.247.247 0 00.485.065l3.531-13.065a3.088 3.088 0 012.981-2.282h30.681a.618.618 0 00.618-.618v-4.941a.618.618 0 00-.618-.618H16.06a3.088 3.088 0 01-1.977-.716l-2.675-2.23a.618.618 0 00-.395-.142z"/></svg>