<svg height="50" viewBox="0 0 65 65" width="50" xmlns="http://www.w3.org/2000/svg"><g transform="translate(.66 6.435)"><path d="M58.55 52.13H5.13A5.13 5.13 0 010 47V5.13A5.13 5.13 0 015.13 0h53.42a5.13 5.13 0 015.13 5.13V47a5.13 5.13 0 01-5.13 5.13zM5.13 4A1.13 1.13 0 004 5.13V47a1.13 1.13 0 001.13 1.13h53.42A1.13 1.13 0 0059.67 47V5.13A1.13 1.13 0 0058.55 4z"/><path d="M12.08 43.46h39.51A1.69 1.69 0 0053 40.77l-5.45-7.4a1.69 1.69 0 00-2.55-.22l-5.6 5.33-13-17.65a1.69 1.69 0 00-2.78.08l-13 19.94a1.69 1.69 0 001.46 2.61z"/><circle cx="44.13" cy="15.12" r="5.93"/></g></svg>