<svg height="50" viewBox="0 0 65 65" width="50" xmlns="http://www.w3.org/2000/svg"><g transform="translate(.66 6.435)"><path d="m58.55 52.13h-53.42a5.13 5.13 0 0 1 -5.13-5.13v-41.87a5.13 5.13 0 0 1 5.13-5.13h53.42a5.13 5.13 0 0 1 5.13 5.13v41.87a5.13 5.13 0 0 1 -5.13 5.13zm-53.42-48.13a1.13 1.13 0 0 0 -1.13 1.13v41.87a1.13 1.13 0 0 0 1.13 1.13h53.42a1.13 1.13 0 0 0 1.12-1.13v-41.87a1.13 1.13 0 0 0 -1.12-1.13z"/><path d="m12.08 43.46h39.51a1.69 1.69 0 0 0 1.41-2.69l-5.45-7.4a1.69 1.69 0 0 0 -2.55-.22l-5.6 5.33-13-17.65a1.69 1.69 0 0 0 -2.78.08l-13 19.94a1.69 1.69 0 0 0 1.46 2.61z"/><circle cx="44.130001" cy="15.12" r="5.93"/></g></svg>