<svg xmlns="http://www.w3.org/2000/svg" height="50" viewBox="-97 220.9 50 50" width="50"><path d="M-81.965 220.933c-.128.035-.239.096-.321.147-1.798 1.11-3.63 2.03-5.29 3.078a.895.895 0 00-.39.566c-.04.199-.025.37-.025.514-.008 7.165-.07 14.604-.074 21.54 0 1.548.19 3.095.53 4.602.45 2.01 1.147 3.943 2.008 5.797v.002a32.225 32.225 0 003.24 5.4l.005.006c1.255 1.609 2.643 3.13 4.205 4.445 1.655 1.393 3.546 2.605 5.64 3.308 2.23.744 4.762.87 6.908-.359l.002-.002c1.75-1.032 3.561-2.066 5.18-3.024v-.002c.468-.281.932-.569 1.365-.943l.002-.002c.802-.704 1.42-1.595 1.862-2.539.712-1.517 1.013-3.175 1.07-4.804.057-7.407.07-15.049.112-22.182 0-.342-.232-.581-.436-.725-2.169-1.262-4.45-2.56-6.498-3.752-.002 0-.004-.003-.006-.004-.528-.292-1.325-.765-1.641-.95a.884.884 0 00-.714-.035c-1.86 1.023-3.793 2.183-5.389 3.097l-.002.002-.004.002c-.296.164-.536.483-.536.861-.009 2.274.004 4.68-.019 6.768.002 1.806-.018 3.638-.019 5.181a391.058 391.058 0 01-.02 4.49l.012 1.376c.107.216.075.316-.541-.646-.485-.866-.86-1.813-1.018-2.785-.088-.54-.09-1.1-.09-1.673.026-4.671.002-9.571.057-13.819v-.004a245.902 245.902 0 01.018-3.56v-3.547c0-.138.02-.353-.098-.719-.063-.182-.208-.235-.413-.372-2.35-1.333-4.998-2.888-7.112-4.111l.004.004c-.279-.166-.565-.34-.877-.496v-.002c-.01-.005-.086-.082-.263-.13a.767.767 0 00-.423 0zm.22 1.692c2.23 1.279 4.554 2.625 6.564 3.782-1.37.796-2.553 1.464-3.81 2.2l-.014.008c-2.154-1.239-4.361-2.52-6.537-3.783 1.357-.8 2.556-1.49 3.796-2.206zm-4.601 3.65c2.213 1.273 4.631 2.661 6.536 3.765-.003 2.343-.017 4.735-.017 6.65a1813.457 1813.457 0 01-6.52-3.75zm21.41 6.463c2.22 1.285 4.537 2.608 6.522 3.754-1.287.744-2.583 1.51-3.777 2.202h-.002l-.103-.074-.024-.014c-2.272-1.298-4.246-2.44-6.401-3.67 1.296-.762 2.628-1.531 3.785-2.2zm-21.389 2.075c.997.58 1.999 1.15 2.987 1.732l.005.002c1.245.724 2.424 1.396 3.507 2.01.001 4.402-.02 8.923-.02 12.99 0 .855.154 1.708.424 2.517.536 1.642 1.453 3.19 2.698 4.416h.002c.82.803 1.827 1.548 3.008 1.83 1.298.324 2.702-.05 3.49-1.212v-.002c.76-1.128.687-2.439.687-3.578v-1.133c0-1.705.019-3.412.019-5.101 0-1.472.002-2.928.017-4.396 1.452.851 3.003 1.741 4.38 2.548l.003.002c.718.412 1.437.826 2.136 1.236-.006 2.421.014 5.127-.018 7.322V256a214.941 214.941 0 01-.02 3.432v1.82c0 1.62-.237 3.238-.898 4.684h.002c-.758 1.642-2.161 2.9-3.942 3.285v-.002c-1.966.42-4.065-.213-5.862-1.156h-.002c-1.618-.855-3.095-1.985-4.433-3.266-1.107-1.02-2.175-2.154-2.842-3.05-1.666-2.152-2.81-4.639-3.518-6.432-.715-1.724-.98-2.948-1.542-4.775-.146-.734-.26-1.724-.306-3.909-.007-3.95.036-8.084.038-11.818zm16.808 1.518c2.195 1.261 4.495 2.594 6.543 3.783-.004.024-.007.03-.007.077-.006 2.293-.019 4.445-.019 6.572a3112.437 3112.437 0 01-6.525-3.77c.018-2.177.007-4.452.007-6.662zm-4.892.02c-.02 4.384-.038 7.716-.038 11.986 0 1.158.289 2.3.721 3.343.553 1.27 1.371 2.445 2.16 3.4l.004.003.008.011c.113.13.229.23.302.304.032.032.046.037.064.052.029.35.077.626.1 1.014-.067.799-.315 1.687-.934 2.074-.41.248-.96.245-1.472.08l-.008-.004c-.862-.255-1.638-.864-2.284-1.545-.876-.987-1.068-1.383-1.504-2.128-.558-1.1-.944-2.292-.928-3.52v-.003c0-4.495.038-9.05.028-12.895 1.296-.707 2.625-1.5 3.78-2.171zm11.526 3.814c.013.009.018.014.009.009zm5.282 6.274c0 1.177 0 2.354-.017 3.544v.004c-.007 2.993-.018 5.316-.022 8.113-.035.819-.053 1.618-.213 2.396v.004c-.182.925-.452 1.819-.895 2.633-.445.8-1.008 1.5-1.734 2-.67.44-1.275.77-1.904 1.143.75-1.757.962-3.658.978-5.527v-.002c-.003-3.46.032-6.847.035-10.167.01-.644-.003-1.317-.015-1.95 1.309-.75 2.66-1.539 3.787-2.192z"/></svg>