<svg xmlns="http://www.w3.org/2000/svg" height="50" viewBox="-97 220.9 50 50" width="50"><path d="M-81.965 220.933c-1.908 1.102-3.976 2.201-5.611 3.225-.2.13-.34.333-.39.566-.04.199-.025.37-.025.514-.008 7.165-.07 14.604-.074 21.54 0 1.548.19 3.095.53 4.602.45 2.01 1.147 3.943 2.008 5.797 1.006 1.956 2.126 3.89 3.24 5.402 3.085 3.147 6.313 6.468 9.85 7.759 2.23.744 4.762.87 6.908-.359 2.303-1.424 4.51-2.48 6.547-3.971.778-.786 1.457-1.686 1.864-2.541.712-1.517 1.013-3.175 1.07-4.804.057-7.407.07-15.049.112-22.182 0-.342-.232-.581-.436-.725-2.885-1.683-5.523-3.17-8.145-4.706a.884.884 0 00-.714-.035c-1.86 1.021-3.727 2.143-5.395 3.101-.296.164-.536.483-.536.861-.032 5.89-.004 11.065-.058 16.439-.058 1.282.195 1.854-.529.73-.485-.866-.86-1.813-1.018-2.785-.088-.54-.09-1.1-.09-1.673.017-7.747.075-13.772.075-20.93 0-.138.02-.353-.098-.719-.063-.182-.208-.235-.413-.372-2.9-1.615-5.743-3.353-8.248-4.735a.53.53 0 00-.424.001zm.22 1.692c2.23 1.279 4.554 2.625 6.564 3.782-1.37.796-2.553 1.464-3.81 2.2l-.014.008c-2.154-1.239-4.361-2.52-6.537-3.783 1.317-.775 2.67-1.556 3.797-2.207zm-4.601 3.65c2.213 1.273 4.631 2.661 6.536 3.765-.003 2.343-.017 4.735-.017 6.65-2.176-1.245-4.35-2.495-6.52-3.75zm21.41 6.463c2.22 1.285 4.537 2.608 6.522 3.754-1.287.744-2.583 1.51-3.777 2.202a1110.933 1110.933 0 00-6.53-3.758c1.293-.76 2.631-1.533 3.785-2.198zm-21.389 2.075c2.213 1.28 4.372 2.537 6.499 3.744.001 4.402-.02 8.923-.02 12.99 0 .855.154 1.708.424 2.517.536 1.642 1.453 3.19 2.698 4.416h.002c.82.803 1.827 1.548 3.008 1.83 1.298.324 2.702-.05 3.49-1.212v-.002c.76-1.128.687-2.439.687-3.578.02-3.635.006-7.454.036-10.63 2.29 1.338 4.36 2.532 6.519 3.786.008 4.63-.038 8.333-.038 12.578 0 1.62-.237 3.238-.898 4.684-.766 1.826-2.407 2.922-3.94 3.285-2.133.17-4.24-.323-5.862-1.158-1.662-.978-3.243-2.134-4.435-3.266-1.107-1.02-2.175-2.154-2.842-3.05-1.666-2.152-2.81-4.639-3.518-6.432-.715-1.724-.98-2.948-1.542-4.775-.146-.734-.26-1.724-.306-3.909-.007-3.95.036-8.084.038-11.818zm16.808 1.518c2.195 1.261 4.495 2.594 6.543 3.783a972.34 972.34 0 00-.026 6.649c-2.177-1.254-4.352-2.51-6.525-3.77.018-2.177.007-4.452.007-6.662zm-4.892.02c-.02 4.384-.038 7.716-.038 11.986 0 1.158.289 2.3.721 3.343.67 1.445 1.534 2.637 2.474 3.718.156.298.191.3.164 1.066-.067.799-.315 1.687-.934 2.074-.41.248-.96.245-1.472.08l-.008-.004c-2.721-1.47-4.718-4.299-4.716-7.193-.008-4.405.036-8.937.028-12.898 1.296-.707 2.625-1.5 3.78-2.171zm16.808 10.088c-.011 3.883-.033 7.933-.039 11.661-.035.819-.053 1.618-.213 2.396-.197.967-.503 1.904-.895 2.637-.86 1.579-2.253 2.339-3.638 3.143.75-1.757.962-3.658.978-5.527-.051-4.212.07-8.524.02-12.119 1.295-.743 2.623-1.518 3.787-2.191z"/></svg>