<svg height="265.94165" viewBox="-97 220.9 169.60001 265.94165" width="169.60001" xmlns="http://www.w3.org/2000/svg"><path d="m72.6 303.10334c0-2.1-2.8-3.1-4.3-4-3-1.7-6-3.5-9-5.2-7.7-4.5-15.5-8.9-23.2-13.4-2.5-1.4-5-2.9-7.5-4.3-.4-.2-.9-.5-1.3-.8-1.7-.9-3.1.3-4.6 1.1-5.6 3.3-11.2 6.5-16.9 9.8-3.2 1.9-6.4 3.7-9.7 5.6-1.3.7-2 1.6-2 3.1-.1 4.2 0 8.3 0 12.5 0 8 0 16-.1 24 0 9.3-.1 18.6-.1 27.9 0 8.1 0 16.1-.1 24.2v12.9.6c-.2-.2-2.3-2.8-2.6-3.2-1.3-1.8-2.5-3.6-3.6-5.5-2.7-4.8-4.8-10.1-5.7-15.6-.5-3.1-.5-6.2-.5-9.3 0-4.2 0-8.3 0-12.5 0-6.2 0-12.3.1-18.5 0-7.2 0-14.5.1-21.7 0-7.3 0-14.6.1-21.8 0-6.4 0-12.8.1-19.2 0-4.6 0-9.2 0-13.7 0-1.8 0-3.6 0-5.4 0-1 .2-2.2-.4-3.1-.3-.6-.9-.9-1.4-1.2-1.5-.8-2.9-1.7-4.4-2.5-5.6-3.3-11.3-6.5-16.9-9.8-5.7-3.3-11.4-6.6-17.1-9.9-1.5-.9-3-1.8-4.6-2.6-.4-.2-.7-.5-1.1-.6-1-.3-1.8.1-2.6.6-5 2.9-9.9 5.8-14.9 8.7-4.5 2.6-9.2 5.1-13.6 7.9-1.6 1-1.4 2.6-1.4 4.3v2.2 11.1c0 5.9 0 11.7-.1 17.6 0 7.1 0 14.2-.1 21.2 0 7.3 0 14.7-.1 22 0 6.6 0 13.3-.1 19.9v15 7.1c0 8.2 1 16.4 2.8 24.4 2.4 10.7 6.1 21 10.7 30.9 4.8 10.1 10.6 19.8 17.3 28.8 6.7 8.6 14.1 16.7 22.4 23.7 8.8 7.4 18.8 13.8 29.8 17.5 11.7 3.9 24.8 4.5 35.8-1.8 3.9-2.2 7.7-4.5 11.6-6.8 5.4-3.2 10.9-6.3 16.3-9.5 2.5-1.5 4.9-3 7.1-4.9 4.1-3.6 7.3-8.2 9.6-13.1 3.7-7.9 5.3-16.6 5.6-25.2.1-2.5.1-4.9.1-7.4 0-4.3 0-8.7 0-13 0-6.3 0-12.5.1-18.8 0-7.3 0-14.5.1-21.8 0-7.2 0-14.5.1-21.7 0-6.3 0-12.6.1-18.9 0-4.4 0-8.8 0-13.2.1-1.6.1-3.2.1-4.7zm-5.6 116.6c-.2 4.4-.3 8.8-1.2 13.2-1 5.1-2.5 10.1-5 14.7-2.5 4.5-5.7 8.5-9.9 11.4-2.3 1.6-4.8 2.9-7.2 4.4-2.7 1.5-5.3 3.1-8 4.6 6-10.4 7.3-22.3 7.4-34.1 0-8.2 0-16.3.1-24.5 0-10.1.1-20.2.1-30.3 0-3.1 0-6.3 0-9.4 0-.5-.2-1.5 0-2 .1-.4.7-.6 1.1-.8l22.2-12.9c.2-.1.4-.2.6-.4 0 7.4 0 14.8-.1 22.3 0 11.8-.1 23.7-.1 35.5zm-85-31c2.5 4.9 5.7 9.5 9.5 13.5.5.6 1.1 1.1 1.6 1.6.2.2.7.5.8.7.2.4 0 1.3 0 1.7v4.6c0 4.6-1.1 10.1-5.3 12.7-2.8 1.7-6.3 1.6-9.4.6-5.1-1.5-9.5-5-13.1-8.8-3.4-3.5-6.2-7.6-8.4-11.9-3.1-6.1-5.3-12.8-5.2-19.8 0-3.8 0-7.6 0-11.5 0-7 0-14 .1-20.9 0-7.3 0-14.6.1-21.9 0-4.8 0-9.6 0-14.4 0-.5-.2-1.4.1-1.8.4-.5 1.4-.8 1.9-1.1 1.2-.7 2.4-1.4 3.6-2.1 5.7-3.3 11.4-6.6 17.1-9.9.4-.2.8-.5 1.2-.7v8.6c0 6.5 0 13.1-.1 19.6 0 7.3 0 14.6-.1 21.9v15.2 2.4c0 6 1.5 12 3.8 17.5.5 1.6 1.1 2.9 1.8 4.2zm82.7-85.6c-4 2.3-7.9 4.6-11.9 6.9-2.8 1.7-5.7 3.3-8.5 5-.9.5-1.9 1.1-2.8 1.6-.2.1-.6.4-.8.4-.4 0-1.3-.7-1.6-.9-1.2-.7-2.4-1.4-3.5-2-3-1.7-5.9-3.4-8.9-5.1-3.1-1.8-6.3-3.6-9.4-5.4-2.7-1.6-5.4-3.1-8.2-4.7-2.2-1.3-4.7-2.5-6.8-3.9-.1-.1-.2-.1-.4-.2l12.3-7.2c2.8-1.6 5.5-3.2 8.3-4.8.9-.5 1.7-1 2.6-1.5.2-.1.6-.4.8-.4s.7.4.9.5c.7.4 1.4.8 2.1 1.2 2.3 1.3 4.5 2.6 6.8 3.9 5.9 3.4 11.8 6.8 17.7 10.2 3.7 2.1 7.4 4.3 11.1 6.4.1-.1.2 0 .2 0zm-92.2-53.3c-4.5 2.6-9 5.2-13.5 7.8-1.3.7-2.6 1.5-3.9 2.2-1.4.8-2.7 1.6-4.1 2.4-.4.2-.7.5-1.1.4s-.9-.5-1.3-.7c-.8-.5-1.6-.9-2.4-1.4-2.4-1.4-4.8-2.8-7.2-4.1-5.7-3.3-11.5-6.6-17.2-10-3-1.7-6-3.5-9-5.2-.5-.3-1-.6-1.5-.9 4.1-2.4 8.2-4.8 12.3-7.2 2.8-1.6 5.5-3.2 8.3-4.8.9-.5 1.7-1 2.6-1.5.2-.1.6-.4.8-.4s.7.4.9.5l2.1 1.2c2.3 1.3 4.5 2.6 6.8 3.9 5.9 3.4 11.8 6.8 17.7 10.2 2.4 1.4 4.8 2.8 7.3 4.2.8.5 1.6.9 2.4 1.4.3.2 1.1.5 1.3.8 0 0 .1.1.2.1-.5.5-1 .8-1.5 1.1zm-63.8-3c0-.6 0-1.2 0-1.8 4 2.3 8 4.6 12 6.9 6.8 3.9 13.5 7.8 20.3 11.7 2 1.1 3.9 2.3 5.9 3.4.6.3.6.2.6 1v1.8c0 6.3 0 12.7-.1 19v11.6 4.2c0 .7.1 1.6 0 2.4v.3c-3.8-2.2-7.7-4.4-11.5-6.6-6.7-3.8-13.3-7.7-20-11.5-2.1-1.2-4.1-2.4-6.2-3.6-1-.6-1-.5-1-1.6 0-6.5 0-12.9 0-19.4 0-5.8 0-11.6 0-17.4 0-.2 0-.3 0-.4zm90.7 52.4c4.9 2.8 9.7 5.6 14.6 8.4l13.5 7.8c2.9 1.7 5.7 3.3 8.6 5 .6.3 1.1.7 1.7 1 .1.1.4.2.4.3.2.3 0 1.1 0 1.4 0 6.8 0 13.6-.1 20.4v11.4 4.1c0 .7.2 1.6 0 2.3v.3c-4-2.3-8-4.6-12-6.9-6.7-3.9-13.5-7.8-20.2-11.7-2-1.1-3.9-2.3-5.9-3.4-.2-.1-.5-.2-.6-.4-.2-.3 0-1.3 0-1.6 0-6.8 0-13.7 0-20.5 0-5.8 0-11.6 0-17.5 0-.2 0-.3 0-.4zm-90.8-8.3c6.3 3.7 12.7 7.3 19 11 4.4 2.5 8.8 5.1 13.2 7.6 1.5.9 3.1 1.8 4.6 2.7.4.3 1.7.7 2 1.1.1.2 0 .7 0 1v3.4 11.8c0 10.6-.1 21.3-.1 31.9v17.4 5.5c0 4.4.8 8.8 2.2 13 2.8 8.6 7.6 16.7 14.1 23.1 4.3 4.2 9.5 8 15.4 9.4 6.4 1.6 13.1-.2 16.9-5.8 3.7-5.5 3.4-12.1 3.4-18.3 0-2 0-4.1 0-6.1 0-9.2.1-18.4.1-27.5 0-8.5 0-16.9.1-25.4 0-.5 0-.9 0-1.4 3 1.7 5.9 3.4 8.9 5.2 5.8 3.4 11.6 6.7 17.4 10.1 4 2.3 8 4.6 11.9 6.9.5.3.5.3.5.9v3.9 15.6c0 6.8 0 13.6-.1 20.4 0 6.2 0 12.3-.1 18.5v9.8c0 8.9-1.3 17.9-5 26-4.3 9.3-12.3 16.5-22.5 18.7-11.2 2.4-22.9-1.2-32.8-6.4-8.9-4.7-17-10.9-24.3-17.9-7.5-7.2-14.1-15.3-19.8-23.9-5.9-8.7-10.9-18.1-14.9-27.8-3.9-9.4-6.9-19.2-8.6-29.2-1-6.1-1.5-12.2-1.5-18.3 0-4.1 0-8.2 0-12.2 0-6.5 0-13 .1-19.5 0-6.6 0-13.2.1-19.8 0-4.4 0-8.8 0-13.1-.2-1.1-.2-1.7-.2-2.3z"/><path d="m-6.6 475.70334c1.2.1 2.3.1 3.4.1 8.6 0 16.3-2.8 22.2-8.3 8.5-7.8 13.1-20.3 13.1-36.1l.3-59.3c0-1.4-1.2-2.6-2.6-2.6s-2.6 1.2-2.6 2.6l-.3 59.3c0 14.3-4 25.4-11.4 32.2-5.7 5.2-13.2 7.5-21.7 6.8-1.4-.1-2.7.9-2.8 2.4s.9 2.8 2.4 2.9z"/></svg>