<svg enable-background="new 0 0 40 40" height="50" viewBox="0 0 36.25 36.25" width="50" xmlns="http://www.w3.org/2000/svg"><path d="m32.582 3.694h-28.915c-1.458 0-2.644 1.187-2.644 2.645v23.572c0 1.458 1.186 2.645 2.644 2.645h28.915c1.458 0 2.645-1.187 2.645-2.645v-23.572c0-1.459-1.186-2.645-2.645-2.645zm-5.914 1.925h2.972v2.75h-2.972zm-6.686 0h2.971v2.75h-2.971zm-6.686 0h2.971v2.75h-2.971zm-6.686 0h2.972v2.75h-2.972zm2.972 25.012h-2.972v-2.75h2.972zm6.686 0h-2.971v-2.75h2.971zm6.686 0h-2.971v-2.75h2.971zm6.686 0h-2.972v-2.75h2.972zm2.587-4.708h-28.204v-15.596h28.204z"/><path d="m14.386125 23.235488 7.986-4.61c.477-.275.477-.725 0-1l-7.986-4.611c-.477-.275-.866-.05-.866.5v9.222c0 .549.389.774.866.499z"/></svg>