<svg height="50" viewBox="0 0 36.25 36.25" width="50" xmlns="http://www.w3.org/2000/svg"><path d="M32.582 3.694H3.667a2.648 2.648 0 00-2.644 2.645v23.572a2.648 2.648 0 002.644 2.645h28.915a2.649 2.649 0 002.645-2.645V6.339a2.647 2.647 0 00-2.645-2.645zm-5.914 1.925h2.972v2.75h-2.972zm-6.686 0h2.971v2.75h-2.971zm-6.686 0h2.971v2.75h-2.971zm-6.686 0h2.972v2.75H6.61zm2.972 25.012H6.61v-2.75h2.972zm6.686 0h-2.971v-2.75h2.971zm6.686 0h-2.971v-2.75h2.971zm6.686 0h-2.972v-2.75h2.972zm2.587-4.708H4.023V10.327h28.204z"/><path d="M14.386 23.235l7.986-4.61c.477-.275.477-.725 0-1l-7.986-4.61c-.477-.276-.866-.05-.866.5v9.221c0 .55.39.774.866.5z"/></svg>